<svg xmlns="http://www.w3.org/2000/svg" width="200" height="200" viewBox="0 0 200 200"><path fill="#FFF" d="M185.357 182.993l-7.946-94.94c-.05.01-.1.034-.154.044-.507 1.233-1.043 3.656-1.425 5.36-1.452 6.52-3.885 17.44-14.244 17.44-10.955-.02-12.986-6.274-14.47-10.842-.54-1.653-1.09-3.353-2.062-5.096-.39.028-.826.07-1.275.11-1.345.125-2.86.268-4.52.268-4.956 0-8.782-1.356-11.71-4.146-4.512-4.292-7.94-13.673-11.638-24.585a559.53 559.53 0 0 0-1.017-2.972c-4.703-.044-10.433-2.86-16.49-5.844-3.55-1.746-8.917-4.387-10.757-4.387-1.29 0-2.898.187-4.6.383-2.048.24-4.167.485-6.293.485-1.464 0-2.8-.125-4.02-.378-4.604 4.246-11.67 4.246-15.843 4.246-.537 0-1.07-.002-1.605-.005-.507-.003-1.013-.006-1.514-.006-1.14 0-2.605-.098-4.204-.446l-.234 2.784c-12.042-.427-26.504.22-31.833 5.164-9.127 8.476-9.382 44.782 2.49 64.935 5.004 8.494 11.797 12.748 20.294 12.748.694 0 1.402-.034 2.12-.094l-3.332 39.775s-28.938 15.673 73.14 15.673c102.083.002 73.142-15.67 73.142-15.67zM31.4 123.843c-9.552-16.214-7.927-43.458-4.86-48.473 2.61-1.295 11.58-1.92 21.688-1.655l-4.698 56.113c-5.556 1.18-9.03-.724-12.13-5.984z"/><path fill="#FFF" d="M177.064 37.367c-3.608-10.756-8.23-15.55-14.984-15.55-3.27 0-6.41 1.097-9.077 3.174l-2.64 2.054-.73-3.265c-2.306-10.322-11.31-17.53-21.893-17.53-6.375 0-12.48 2.75-16.754 7.546l-2.032 2.283-1.427-2.707C103.624 5.95 96.007 1.337 87.65 1.337c-11.208 0-20.77 8.378-22.24 19.487l-.33 2.494-2.402-.75c-1.646-.515-3.052-.753-4.423-.753-3.974 0-7.71 1.546-10.52 4.356s-4.356 6.546-4.355 10.52c0 12.8 5.935 14.28 10.397 14.28.514 0 1.035.003 1.557.005.52.003 1.043.006 1.567.006 6.522 0 10.61-.66 12.207-4.044l1.073-2.272 2.058 1.44c.97.68 2.448 1.01 4.52 1.01 1.71 0 3.62-.22 5.467-.438 1.83-.213 3.722-.434 5.426-.434 3.508 0 8.565 2.49 13.918 5.125 4.867 2.394 10.383 5.11 13.44 5.11.657 0 1.103-.128 1.325-.378l2.035-2.29 1.425 2.712c.733 1.4 1.69 4.216 2.897 7.783 2.468 7.278 6.197 18.275 9.795 21.698 1.556 1.482 3.71 2.173 6.775 2.173 1.322 0 2.666-.126 3.852-.236 1.05-.097 2.04-.19 2.91-.19.772 0 2.824 0 3.934 1.58 2.225 3.145 3.19 6.12 3.968 8.51 1.392 4.284 1.914 5.888 7.677 5.896 4.28 0 5.704-4.906 7.247-11.838 1.188-5.334 2.418-10.85 7.04-10.85.222 0 .81 0 1.548-1.03 4.74-6.59 2.737-33.405-.37-42.65z"/></svg>