<svg xmlns="http://www.w3.org/2000/svg" width="160" height="40" viewBox="0 0 160 40"><path fill="#F85D5D" d="M4.765 8.89a7.112 7.112 0 0 1 2.02-4.97 7.594 7.594 0 0 1 2.218-1.565 6.27 6.27 0 0 1 2.693-.594c.422 0 .76.12 1.01.356.25.238.376.53.376.873 0 .34-.12.632-.356.87a1.19 1.19 0 0 1-.872.355 4.39 4.39 0 0 0-1.802.377 4.846 4.846 0 0 0-1.485 1.01A4.63 4.63 0 0 0 7.22 8.89v18.973c0 .633.12 1.234.357 1.8.237.57.567 1.065.99 1.487a4.87 4.87 0 0 0 1.485 1.01 4.42 4.42 0 0 0 1.802.377c.343 0 .634.12.872.355.238.236.356.527.356.873 0 .342-.12.633-.356.87a1.19 1.19 0 0 1-.872.354 6.89 6.89 0 0 1-2.752-.558 7.206 7.206 0 0 1-2.258-1.52 7.12 7.12 0 0 1-1.525-2.28 7.007 7.007 0 0 1-.555-2.77v-8.238H2.547c-.343 0-.634-.12-.872-.357a1.183 1.183 0 0 1-.356-.87c0-.343.118-.634.355-.872.238-.238.528-.357.872-.357h2.218V8.89z"/><path fill="#FFF" d="M15.776 6.948c0-.342.12-.633.356-.87a1.19 1.19 0 0 1 .87-.356c.344 0 .635.12.873.355.237.238.356.53.356.87v6.655a7.374 7.374 0 0 1 2.1-1.268 6.777 6.777 0 0 1 2.535-.475 7.122 7.122 0 0 1 5.05 2.08 7.127 7.127 0 0 1 2.08 5.047V29.8c0 .345-.12.636-.357.873a1.188 1.188 0 0 1-.87.354 1.19 1.19 0 0 1-.873-.354 1.183 1.183 0 0 1-.356-.873V18.99c0-.634-.126-1.235-.377-1.802a4.868 4.868 0 0 0-1.01-1.486 4.6 4.6 0 0 0-1.485-.99 4.612 4.612 0 0 0-1.802-.355c-.633 0-1.228.117-1.782.355a5.013 5.013 0 0 0-1.465.95 4.243 4.243 0 0 0-.99 1.407 4.742 4.742 0 0 0-.397 1.722v11.01c0 .37-.113.67-.337.894-.225.226-.52.337-.89.337-.344 0-.628-.12-.853-.355a1.377 1.377 0 0 1-.376-.872V6.948zM48.333 27.427c-.872.978-1.92 1.814-3.15 2.515a7.895 7.895 0 0 1-3.98 1.052c-1.32 0-2.554-.238-3.703-.714a9.63 9.63 0 0 1-3.03-1.98c-.872-.844-1.558-1.847-2.06-3.01s-.752-2.43-.752-3.803c0-1.32.244-2.567.732-3.743a9.544 9.544 0 0 1 2.02-3.068 9.436 9.436 0 0 1 3.05-2.06c1.175-.5 2.45-.753 3.822-.753 1.268 0 2.476.258 3.624.77 1.15.517 2.16 1.21 3.03 2.08s1.564 1.89 2.08 3.052a9.08 9.08 0 0 1 .77 3.722v8.356c0 .345-.118.634-.355.87a1.18 1.18 0 0 1-.87.355 1.18 1.18 0 0 1-.872-.354 1.18 1.18 0 0 1-.356-.87v-2.417zm0-5.943c0-.978-.185-1.9-.555-2.772a7.133 7.133 0 0 0-1.525-2.277 7.117 7.117 0 0 0-2.277-1.523 7.006 7.006 0 0 0-2.772-.555c-.977 0-1.895.184-2.753.555-.857.37-1.61.877-2.256 1.523a7.117 7.117 0 0 0-1.525 2.277 7.023 7.023 0 0 0-.556 2.772c0 .977.185 1.896.555 2.752a7.154 7.154 0 0 0 3.78 3.783c.86.368 1.777.555 2.754.555.95 0 1.848-.18 2.693-.535a7.153 7.153 0 0 0 2.238-1.483 7.264 7.264 0 0 0 1.544-2.238c.38-.86.6-1.804.653-2.836zM53.047 16.812c0-.924.185-1.703.555-2.338a4.538 4.538 0 0 1 1.465-1.543c.607-.395 1.294-.68 2.06-.85s1.53-.26 2.298-.26c.634 0 1.307.073 2.02.218a8.508 8.508 0 0 1 1.98.654c.607.29 1.11.646 1.505 1.068.396.424.595.926.595 1.506 0 .29-.1.574-.297.852-.198.277-.522.416-.97.416-.503 0-.886-.29-1.15-.87-.237-.503-.7-.878-1.386-1.13-.687-.25-1.452-.377-2.297-.377-.45 0-.905.033-1.366.1-.464.066-.88.197-1.25.396-.37.197-.68.47-.93.81-.25.345-.376.794-.376 1.35 0 .395.125.74.376 1.028.25.292.567.536.95.733.383.2.806.352 1.268.457s.904.197 1.327.277c.977.158 1.895.39 2.753.69.857.306 1.61.694 2.257 1.17s1.162 1.044 1.545 1.704.574 1.427.574 2.298-.185 1.67-.555 2.396a5.57 5.57 0 0 1-1.525 1.86c-.647.515-1.406.91-2.277 1.187a9.11 9.11 0 0 1-2.774.417c-1.664 0-3.123-.383-4.377-1.146s-2.093-1.82-2.515-3.167a1.174 1.174 0 0 1-.04-.355c0-.342.112-.646.337-.91.223-.264.52-.396.89-.396.29 0 .548.086.772.258.224.172.402.402.535.693.343.846.93 1.484 1.763 1.92a5.59 5.59 0 0 0 2.634.654c1.293 0 2.396-.297 3.307-.89.912-.6 1.368-1.437 1.368-2.52 0-.87-.45-1.608-1.347-2.218-.897-.608-2.006-1.003-3.326-1.19-1.9-.263-3.44-.783-4.614-1.56-1.176-.78-1.763-1.91-1.763-3.388zM68.138 6.948c0-.342.118-.633.356-.87.237-.237.527-.356.87-.356.344 0 .635.12.872.355.237.238.356.53.356.87v6.655a7.38 7.38 0 0 1 2.1-1.268 6.776 6.776 0 0 1 2.534-.475 7.122 7.122 0 0 1 5.05 2.08 7.125 7.125 0 0 1 1.523 2.276c.37.87.556 1.795.556 2.77V29.8c0 .345-.12.636-.355.873-.235.236-.526.354-.87.354s-.634-.118-.872-.354a1.18 1.18 0 0 1-.358-.873V18.99c0-.634-.125-1.235-.376-1.802a4.868 4.868 0 0 0-1.01-1.486 4.617 4.617 0 0 0-3.288-1.345c-.634 0-1.23.117-1.783.355a5.013 5.013 0 0 0-1.465.95 4.228 4.228 0 0 0-.99 1.407 4.742 4.742 0 0 0-.397 1.722v11.01c0 .37-.112.67-.337.894-.225.226-.52.337-.89.337-.345 0-.63-.12-.853-.355a1.372 1.372 0 0 1-.376-.872V6.948z"/><path fill="#F85D5D" d="M100.537 6.948c0-.342.117-.633.355-.87.236-.237.526-.356.87-.356.345 0 .636.12.87.355.24.238.357.53.357.87v22.855c0 .345-.12.636-.357.873a1.18 1.18 0 0 1-.87.354c-.345 0-.635-.12-.87-.355a1.183 1.183 0 0 1-.356-.873V27.94l-.355.357a9.526 9.526 0 0 1-3.05 1.98 9.646 9.646 0 0 1-3.685.713c-1.348 0-2.602-.25-3.764-.752s-2.172-1.19-3.03-2.062a9.974 9.974 0 0 1-2.04-3.027 9.05 9.05 0 0 1-.752-3.665c0-1.32.26-2.562.772-3.725.517-1.162 1.21-2.18 2.08-3.05s1.88-1.565 3.03-2.08a8.76 8.76 0 0 1 3.624-.772c1.48.053 2.823.43 4.04 1.13 1.214.698 2.257 1.524 3.13 2.474V6.948zm0 14.536c-.055-1.028-.27-1.98-.654-2.853s-.89-1.624-1.523-2.257a6.89 6.89 0 0 0-2.22-1.486 6.88 6.88 0 0 0-2.69-.533c-.98 0-1.9.184-2.772.555a7.1 7.1 0 0 0-2.276 1.522 7.13 7.13 0 0 0-1.524 2.277 7.024 7.024 0 0 0-.556 2.77c0 .978.186 1.897.556 2.753a7.1 7.1 0 0 0 3.8 3.783c.87.37 1.796.556 2.772.556s1.895-.187 2.753-.556a7.126 7.126 0 0 0 3.78-3.783c.37-.853.554-1.77.554-2.75z"/><path fill="#FFF" d="M114.122 11.86a8.79 8.79 0 0 1 3.625.77c1.147.517 2.157 1.21 3.028 2.08s1.563 1.89 2.08 3.052a9.063 9.063 0 0 1 .77 3.722c0 1.293-.25 2.517-.75 3.664a10.012 10.012 0 0 1-2.04 3.028 9.49 9.49 0 0 1-3.03 2.062c-1.162.502-2.416.752-3.764.752-1.317 0-2.556-.238-3.702-.714a9.66 9.66 0 0 1-3.03-1.98c-.87-.845-1.558-1.847-2.06-3.01s-.752-2.43-.752-3.803c0-1.32.243-2.554.73-3.702a9.417 9.417 0 0 1 2.02-3.01 9.844 9.844 0 0 1 3.05-2.06c1.18-.514 2.453-.797 3.826-.85zm-.08 2.496c-.976 0-1.894.184-2.75.555a7.19 7.19 0 0 0-2.26 1.524 7.15 7.15 0 0 0-2.08 5.05c0 .976.187 1.895.556 2.752.37.86.88 1.61 1.525 2.258a7.116 7.116 0 0 0 2.258 1.525c.858.368 1.776.554 2.753.554s1.9-.186 2.77-.555a7.042 7.042 0 0 0 2.277-1.526 7.166 7.166 0 0 0 1.525-2.258 6.905 6.905 0 0 0 .555-2.752 7.05 7.05 0 0 0-.555-2.773c-.37-.87-.88-1.628-1.525-2.276a7.08 7.08 0 0 0-2.276-1.523 6.994 6.994 0 0 0-2.77-.554zM141.65 13.444c0-.342.12-.633.354-.87a1.18 1.18 0 0 1 .87-.356c.346 0 .636.117.872.355.237.238.356.53.356.87v15.29a9.044 9.044 0 0 1-.754 3.664 9.996 9.996 0 0 1-2.04 3.03 9.497 9.497 0 0 1-3.028 2.06c-1.162.5-2.416.754-3.764.754s-2.588-.237-3.724-.714a9.603 9.603 0 0 1-3.01-1.98l-.04-.038a1.14 1.14 0 0 1-.355-.832c0-.344.125-.64.375-.89a1.22 1.22 0 0 1 .894-.378c.343 0 .618.104.83.314a7.27 7.27 0 0 0 2.26 1.545c.844.37 1.77.557 2.77.557.978 0 1.9-.188 2.772-.557.87-.37 1.63-.88 2.276-1.523a7.097 7.097 0 0 0 1.523-2.26c.37-.855.557-1.773.557-2.752v-.87a9.477 9.477 0 0 1-3.148 2.315c-1.23.568-2.555.852-3.98.852a9.57 9.57 0 0 1-6.73-2.692 9.26 9.26 0 0 1-2.063-3.01c-.502-1.163-.752-2.433-.752-3.806a9.4 9.4 0 0 1 2.752-6.713 9.884 9.884 0 0 1 3.052-2.062c1.175-.514 2.447-.797 3.822-.852 1.37.027 2.666.332 3.88.912s2.272 1.373 3.17 2.375v-1.74h.004zm0 7.803a7.366 7.366 0 0 0-.653-2.674c-.384-.832-.897-1.557-1.545-2.178s-1.394-1.11-2.238-1.465a6.84 6.84 0 0 0-2.692-.535 6.88 6.88 0 0 0-2.752.555c-.857.37-1.61.877-2.258 1.525a7.057 7.057 0 0 0-1.525 2.277 7.032 7.032 0 0 0-.555 2.77c0 .977.186 1.896.555 2.755.37.855.877 1.607 1.525 2.256a7.116 7.116 0 0 0 2.258 1.525c.856.37 1.774.555 2.752.555.95 0 1.85-.178 2.692-.535a7.472 7.472 0 0 0 2.238-1.445 6.96 6.96 0 0 0 1.545-2.14c.382-.817.6-1.702.653-2.653v-.593z"/><path fill="#F85D5D" d="M152.78 8.89a4.643 4.643 0 0 0-1.346-3.287 4.878 4.878 0 0 0-1.484-1.01 4.402 4.402 0 0 0-1.805-.377 1.19 1.19 0 0 1-.87-.355 1.195 1.195 0 0 1-.355-.87c0-.344.125-.635.376-.873.25-.236.588-.355 1.012-.355.95 0 1.848.197 2.692.594a7.594 7.594 0 0 1 2.218 1.564c.635.648 1.13 1.4 1.485 2.258.354.858.532 1.762.532 2.713v8.278h2.22c.344 0 .635.12.872.357.236.238.355.53.355.87 0 .345-.12.636-.355.872a1.183 1.183 0 0 1-.87.357h-2.222v8.237c0 .98-.185 1.9-.553 2.772-.37.87-.88 1.632-1.524 2.28a7.157 7.157 0 0 1-2.26 1.52 6.89 6.89 0 0 1-2.753.557c-.342 0-.633-.12-.87-.356a1.19 1.19 0 0 1-.355-.87c0-.345.12-.636.354-.873a1.19 1.19 0 0 1 .87-.353 4.44 4.44 0 0 0 1.806-.377c.566-.252 1.062-.59 1.484-1.01s.752-.92.99-1.486a4.62 4.62 0 0 0 .355-1.802V8.89z"/></svg>