<?xml version="1.0" standalone="no"?><!DOCTYPE svg PUBLIC "-//W3C//DTD SVG 1.1//EN" "http://www.w3.org/Graphics/SVG/1.1/DTD/svg11.dtd"><svg width="200" height="200" viewBox="0 0 200 200" version="1.1" xmlns="http://www.w3.org/2000/svg" xmlns:xlink="http://www.w3.org/1999/xlink"><defs><style type="text/css"><![CDATA[
@font-face { font-family: ifont; src: url("http://at.alicdn.com/t/font_1442373896_4754455.eot?#iefix") format("embedded-opentype"), url("http://at.alicdn.com/t/font_1442373896_4754455.woff") format("woff"), url("http://at.alicdn.com/t/font_1442373896_4754455.ttf") format("truetype"), url("http://at.alicdn.com/t/font_1442373896_4754455.svg#ifont") format("svg"); }

]]></style></defs><g class="transform-group"><g transform="scale(0.1953125, 0.1953125)"><path d="M515.540639 892.570645c-3.074012 0-6.15007-0.750083-8.949836-2.287089-0.933255-0.532119-1.850138-1.13587-2.672876-1.793856-1.482771-1.098008-5.984295-4.210905-12.648065-8.821923-29.101805-20.244067-97.266277-67.614957-142.181233-102.355179C181.518147 646.846174 92.545766 550.238906 77.005838 481.911728c-7.963369-24.215518-12.373819-51.671846-12.777001-79.951937-0.969071-75.153654 27.327392-147.58122 77.625962-198.702528 45.356001-46.142923 104.82544-71.694879 167.367869-71.951729l0.037862 0c79.362512 0 150.638859 35.876092 197.696618 97.266277 45.942355-63.330374 117.070322-100.961436 195.226357-102.024651l4.742001-0.035816c134.292566 0 245.102301 118.569466 246.950392 264.284175 0.329505 28.170596-3.403516 55.735395-11.146874 81.945337-13.397125 67.101257-102.225219 168.978553-263.571954 301.130362-63.641459 52.514027-115.367541 91.482551-153.657612 115.806539C522.461259 891.61897 519.019881 892.570645 515.540639 892.570645zM809.074999 462.712457c-1.261737 0-2.524496-0.128937-3.825119-0.403183-9.993608-2.087545-16.435321-11.916401-14.349823-21.927405l2.783393-11.275811c3.441379-11.860119 5.086855-24.01495 4.904707-36.314067-0.768503-62.212924-42.209334-110.901833-94.41023-110.901833-10.250458 0-18.578124-8.29185-18.578124-18.542308 0-10.248412 8.253988-18.521842 18.504446-18.521842 72.756047 0 130.540102 64.775282 131.547035 147.470703 0.23843 15.923668-1.885953 31.7931-6.333242 47.076178l-2.140757 8.586562C825.366034 456.706673 817.661561 462.712457 809.074999 462.712457z" fill="#ce4444"></path></g></g></svg>