<?xml version="1.0" standalone="no"?><!DOCTYPE svg PUBLIC "-//W3C//DTD SVG 1.1//EN" "http://www.w3.org/Graphics/SVG/1.1/DTD/svg11.dtd"><svg width="200" height="200" viewBox="0 0 200 200" version="1.1" xmlns="http://www.w3.org/2000/svg" xmlns:xlink="http://www.w3.org/1999/xlink"><defs><style type="text/css"><![CDATA[
@font-face { font-family: ifont; src: url("http://at.alicdn.com/t/font_1442373896_4754455.eot?#iefix") format("embedded-opentype"), url("http://at.alicdn.com/t/font_1442373896_4754455.woff") format("woff"), url("http://at.alicdn.com/t/font_1442373896_4754455.ttf") format("truetype"), url("http://at.alicdn.com/t/font_1442373896_4754455.svg#ifont") format("svg"); }

]]></style></defs><g class="transform-group"><g transform="scale(0.1953125, 0.1953125)"><path d="M595.497693 417.366689l76.159564-338.485131c0 0 11.095709-60.483536-50.77236-76.159564-65.405639-16.571421-84.621283 47.952128-84.621283 47.952128l-87.442538 366.692566L365.867782 67.985394c0 0-16.653285-63.325257-86.290295-48.339962-59.527768 12.809747-53.547567 72.544223-53.547567 72.544223l91.979878 497.944889c0 0-38.432311-51.478442-38.432311-74.043367s5.641487-67.696822 5.641487-67.696822 7.051603-26.796296-28.207435-12.69309-100.135628 79.684854-104.365976 117.765147 50.071396 149.965523 61.653175 181.40149c19.744693 53.593616 50.130747 115.925243 88.827071 177.791266 76.587306 122.44268 344.55436 174.626179 470.076168-20.002566C875.142717 734.591611 867.696118 590.839603 867.696118 590.839603s5.641487-235.529271-138.214898-124.111692C729.48122 466.728934 715.378014 327.102896 595.497693 417.366689z" fill="#f85d5d"></path></g></g></svg>